<svg width="455" height="48" viewBox="0 0 455 48" fill="none" xmlns="http://www.w3.org/2000/svg">
<path d="M0.78125 24.38C0.78125 16.86 5.52125 11.52 13.3212 11.52C20.9212 11.52 25.2813 17.16 25.0413 25.68C25.0013 26.12 24.7612 26.3 24.3812 26.3H7.40125C7.98125 29.7 10.0812 31.76 13.3812 31.76C15.9212 31.76 17.6812 30.8 18.8412 28.94C19.0412 28.6 19.3212 28.56 19.6612 28.66L23.9212 30.14C24.3012 30.28 24.4412 30.58 24.2612 30.96C22.0612 35.32 17.9413 37.28 13.3613 37.28C5.52125 37.24 0.78125 31.88 0.78125 24.38ZM7.48125 21.64H18.3812C17.8012 18.72 15.9413 17 13.2613 17C10.3413 17 8.24125 18.68 7.48125 21.64Z" fill="#020203"/>
<path d="M36.8015 36.28L26.2215 12.7C26.0215 12.26 26.2215 11.98 26.7015 11.98H32.6415C32.9815 11.98 33.2215 12.12 33.3615 12.46L39.3015 27.54L45.2415 12.46C45.3815 12.12 45.6215 11.98 45.9615 11.98H51.5015C51.9815 11.98 52.1815 12.26 51.9815 12.7L41.4015 36.28C41.2615 36.56 41.0215 36.76 40.6815 36.76H37.5215C37.2015 36.76 36.9615 36.58 36.8015 36.28Z" fill="#020203"/>
<path d="M53.6602 24.38C53.6602 16.86 58.4002 11.52 66.2002 11.52C73.8002 11.52 78.1602 17.16 77.9202 25.68C77.8802 26.12 77.6402 26.3 77.2602 26.3H60.2802C60.8602 29.7 62.9602 31.76 66.2602 31.76C68.8002 31.76 70.5602 30.8 71.7202 28.94C71.9202 28.6 72.2002 28.56 72.5402 28.66L76.8002 30.14C77.1802 30.28 77.3202 30.58 77.1402 30.96C74.9402 35.32 70.8202 37.28 66.2402 37.28C58.3802 37.24 53.6602 31.88 53.6602 24.38ZM60.3402 21.64H71.2402C70.6602 18.72 68.8002 17 66.1202 17C63.2202 17 61.1202 18.68 60.3402 21.64Z" fill="#020203"/>
<path d="M82.5 36.14V12.6C82.5 12.22 82.74 11.98 83.12 11.98H87.62C88 11.98 88.28 12.18 88.28 12.6L88.42 15.7C90.1 13.02 93.02 11.64 95.98 11.64C96.7 11.64 97.18 11.68 97.66 11.78C98.04 11.88 98.18 12.12 98.18 12.44V17.36C98.18 17.78 97.94 17.94 97.52 17.88C96.9 17.84 96.18 17.68 95.22 17.68C91.88 17.68 88.72 19.98 88.72 23.9V36.1C88.72 36.48 88.48 36.72 88.1 36.72H83.12C82.74 36.76 82.5 36.52 82.5 36.14Z" fill="#020203"/>
<path d="M105.622 46.48L110.162 35.18L100.202 12.7C100.002 12.26 100.202 11.98 100.682 11.98H106.622C106.962 11.98 107.202 12.12 107.342 12.46L113.362 27.68L119.242 12.46C119.382 12.12 119.622 11.98 119.962 11.98H125.422C125.862 11.98 126.102 12.26 125.902 12.7L112.022 46.72C111.882 47.06 111.642 47.2 111.302 47.2H106.082C105.662 47.2 105.462 46.9 105.622 46.48Z" fill="#020203"/>
<path d="M130.02 28.1V12.6C130.02 12.22 130.26 11.98 130.64 11.98H135.62C136 11.98 136.24 12.22 136.24 12.6V25.56C136.24 29.68 137.72 31.58 140.98 31.58C144 31.58 146.86 29.34 146.86 24.6V12.6C146.86 12.22 147.1 11.98 147.48 11.98H152.46C152.84 11.98 153.08 12.22 153.08 12.6V36.14C153.08 36.52 152.84 36.76 152.46 36.76H147.96C147.58 36.76 147.3 36.56 147.3 36.14L147.16 33.32C145.34 35.96 142.24 37.24 139.08 37.24C133.32 37.24 130.02 33.8 130.02 28.1Z" fill="#020203"/>
<path d="M159.582 36.14V12.6C159.582 12.22 159.822 11.98 160.202 11.98H164.702C165.082 11.98 165.362 12.18 165.362 12.6L165.502 15.42C167.322 12.78 170.422 11.5 173.582 11.5C179.322 11.5 182.622 14.94 182.622 20.64V36.14C182.622 36.52 182.382 36.76 182.002 36.76H177.022C176.642 36.76 176.402 36.52 176.402 36.14V23.18C176.402 19.06 174.922 17.16 171.662 17.16C168.642 17.16 165.782 19.4 165.782 24.14V36.14C165.782 36.52 165.542 36.76 165.162 36.76H160.182C159.822 36.76 159.582 36.52 159.582 36.14Z" fill="#020203"/>
<path d="M187.52 24.38C187.52 16.86 192.26 11.52 200.06 11.52C207.66 11.52 212.02 17.16 211.78 25.68C211.74 26.12 211.5 26.3 211.12 26.3H194.14C194.72 29.7 196.82 31.76 200.12 31.76C202.66 31.76 204.42 30.8 205.58 28.94C205.78 28.6 206.06 28.56 206.4 28.66L210.66 30.14C211.04 30.28 211.18 30.58 211 30.96C208.8 35.32 204.68 37.28 200.1 37.28C192.26 37.24 187.52 31.88 187.52 24.38ZM194.22 21.64H205.12C204.54 18.72 202.68 17 200 17C197.1 17 194.98 18.68 194.22 21.64Z" fill="#020203"/>
<path d="M214.941 24.38C214.941 16.86 219.681 11.52 227.481 11.52C235.081 11.52 239.441 17.16 239.201 25.68C239.161 26.12 238.921 26.3 238.541 26.3H221.561C222.141 29.7 224.241 31.76 227.541 31.76C230.081 31.76 231.841 30.8 233.001 28.94C233.201 28.6 233.481 28.56 233.821 28.66L238.081 30.14C238.461 30.28 238.601 30.58 238.421 30.96C236.221 35.32 232.101 37.28 227.521 37.28C219.681 37.24 214.941 31.88 214.941 24.38ZM221.641 21.64H232.541C231.961 18.72 230.101 17 227.421 17C224.501 17 222.401 18.68 221.641 21.64Z" fill="#020203"/>
<path d="M242.02 36.14V34.66C242.02 34.38 242.12 34.14 242.26 33.9L253.16 17.48H243.12C242.74 17.48 242.5 17.24 242.5 16.86V12.6C242.5 12.22 242.74 11.98 243.12 11.98H261.88C262.26 11.98 262.5 12.22 262.5 12.6V14.04C262.5 14.32 262.4 14.56 262.26 14.8L251.4 31.26H262.06C262.44 31.26 262.68 31.5 262.68 31.88V36.14C262.68 36.52 262.44 36.76 262.06 36.76H242.64C242.26 36.76 242.02 36.52 242.02 36.14Z" fill="#020203"/>
<path d="M286.961 26C286.061 26 285.221 25.84 284.461 25.56C283.701 25.26 283.041 24.86 282.501 24.34C281.961 23.82 281.541 23.22 281.221 22.54C280.921 21.86 280.761 21.12 280.761 20.34C280.761 19.48 280.941 18.7 281.301 17.98C281.661 17.26 282.161 16.64 282.801 16.1H279.641V14.2H285.801V11H287.981V14.2H294.221V16.1H291.101C291.741 16.62 292.241 17.24 292.601 17.98C292.961 18.7 293.141 19.5 293.141 20.34C293.141 21.12 292.981 21.86 292.681 22.54C292.381 23.22 291.941 23.84 291.401 24.34C290.861 24.86 290.201 25.26 289.441 25.56C288.701 25.86 287.861 26 286.961 26ZM286.961 24.16C287.561 24.16 288.101 24.06 288.621 23.84C289.121 23.64 289.561 23.36 289.941 23C290.321 22.64 290.601 22.24 290.801 21.76C291.001 21.28 291.101 20.76 291.101 20.22C291.101 19.68 291.001 19.16 290.801 18.68C290.601 18.2 290.321 17.76 289.941 17.38C289.561 17 289.121 16.7 288.621 16.46C288.121 16.24 287.561 16.12 286.961 16.12C286.361 16.12 285.801 16.24 285.301 16.46C284.801 16.68 284.361 17 283.981 17.38C283.601 17.76 283.321 18.2 283.121 18.68C282.921 19.16 282.821 19.68 282.821 20.22C282.821 20.76 282.921 21.28 283.121 21.76C283.321 22.24 283.601 22.66 283.981 23C284.361 23.36 284.801 23.64 285.301 23.84C285.821 24.06 286.361 24.16 286.961 24.16ZM299.381 28.28V37.1H297.181V30.12H283.781V28.28H299.381ZM303.781 18.5V20.34H299.381V26.84H297.201V11.92H299.381V18.5H303.781Z" fill="#020203"/>
<path d="M310.022 12.54H312.082V15.36C312.082 16.02 312.142 16.64 312.282 17.22C312.422 17.8 312.682 18.4 313.062 18.98C313.442 19.56 313.962 20.16 314.642 20.78C315.322 21.4 316.182 22.06 317.242 22.78L316.022 24.46C314.742 23.5 313.702 22.64 312.902 21.86C312.122 21.08 311.502 20.34 311.062 19.64C310.602 20.5 309.982 21.38 309.182 22.24C308.382 23.1 307.322 24.02 305.982 24.96L304.742 23.36C305.722 22.64 306.542 21.96 307.222 21.34C307.882 20.72 308.442 20.1 308.862 19.5C309.282 18.9 309.582 18.26 309.762 17.62C309.942 16.96 310.042 16.26 310.042 15.5V12.54H310.022ZM326.262 32.18C326.262 32.98 326.102 33.74 325.762 34.44C325.422 35.16 324.962 35.78 324.362 36.32C323.762 36.86 323.042 37.28 322.202 37.6C321.362 37.92 320.422 38.08 319.422 38.08C318.382 38.08 317.442 37.94 316.602 37.64C315.762 37.34 315.042 36.92 314.442 36.4C313.842 35.86 313.382 35.24 313.062 34.52C312.742 33.8 312.562 33.04 312.562 32.2C312.562 31.42 312.722 30.68 313.062 29.96C313.402 29.24 313.862 28.62 314.462 28.08C315.062 27.54 315.782 27.1 316.622 26.8C317.462 26.48 318.402 26.32 319.422 26.32C320.422 26.32 321.342 26.48 322.182 26.8C323.022 27.12 323.742 27.54 324.362 28.08C324.962 28.62 325.442 29.26 325.782 29.96C326.102 30.64 326.262 31.4 326.262 32.18ZM324.102 32.18C324.102 31.7 323.982 31.2 323.762 30.72C323.542 30.24 323.222 29.8 322.802 29.42C322.402 29.04 321.902 28.72 321.322 28.48C320.742 28.24 320.102 28.12 319.402 28.12C318.682 28.12 318.022 28.24 317.462 28.48C316.882 28.72 316.402 29.02 316.002 29.42C315.602 29.82 315.282 30.24 315.062 30.72C314.842 31.2 314.742 31.68 314.742 32.18C314.742 32.7 314.842 33.2 315.062 33.68C315.282 34.16 315.602 34.6 316.002 34.98C316.402 35.36 316.902 35.66 317.462 35.9C318.042 36.12 318.682 36.24 319.402 36.24C320.102 36.24 320.742 36.12 321.322 35.9C321.902 35.68 322.402 35.36 322.802 34.98C323.202 34.6 323.522 34.18 323.762 33.68C323.982 33.2 324.102 32.7 324.102 32.18ZM320.942 12.24V16.96H324.642V11.94H326.762V26.2H324.642V18.82H320.942V25.32H318.902V12.26L320.942 12.24Z" fill="#020203"/>
<path d="M331.16 24.7H341.56V21.6H334.38V12.1H336.56V14.68H348.84V12.1H351.02V21.6H343.74V24.7H354.2V26.5H331.16V24.7ZM348.84 37.12V30.9H334.38V29.06H351V37.12H348.84ZM348.84 19.76V16.52H336.56V19.76H348.84Z" fill="#020203"/>
<path d="M363.26 15.62H358.04V13.78H370.88V15.62H365.42V20.1C365.42 20.86 365.52 21.58 365.7 22.24C365.88 22.9 366.2 23.58 366.68 24.28C367.16 24.98 367.8 25.72 368.64 26.52C369.48 27.32 370.54 28.22 371.84 29.24L370.56 30.82C368.96 29.58 367.68 28.46 366.7 27.48C365.72 26.5 364.96 25.56 364.44 24.62C363.94 25.66 363.22 26.7 362.26 27.78C361.3 28.84 360.02 30.06 358.4 31.4L357.02 29.86C358.26 28.82 359.3 27.9 360.12 27.08C360.94 26.26 361.58 25.5 362.04 24.76C362.5 24.02 362.82 23.3 363 22.56C363.18 21.82 363.28 21.04 363.28 20.18V15.62H363.26ZM377.28 11.94V36.84H375.1V11.94H377.28Z" fill="#020203"/>
<path d="M382.219 31.96H405.259V33.8H382.219V31.96ZM402.439 26.46C400.059 25.46 398.179 24.48 396.799 23.48C395.419 22.48 394.399 21.5 393.739 20.48C393.099 21.5 392.099 22.52 390.719 23.54C389.339 24.56 387.439 25.58 385.019 26.6L384.119 24.76C385.659 24.1 386.959 23.42 388.039 22.78C389.119 22.12 389.999 21.48 390.679 20.84C391.359 20.2 391.859 19.54 392.159 18.88C392.459 18.22 392.619 17.54 392.619 16.82V12.9H394.799V16.86C394.799 17.56 394.959 18.24 395.279 18.9C395.599 19.56 396.119 20.2 396.799 20.82C397.479 21.44 398.379 22.06 399.459 22.7C400.539 23.32 401.839 23.96 403.339 24.62L402.439 26.46Z" fill="#020203"/>
<path d="M407.759 32.3H418.159V27.14H410.979V13.06H427.599V14.9H413.139V19.22H427.459V21.06H413.139V25.28H427.859V27.12H420.299V32.28H430.819V34.08H407.719V32.3H407.759Z" fill="#020203"/>
<path d="M453.882 11.94V36.84H451.702V22.3H447.482C447.382 23.16 447.122 23.98 446.742 24.7C446.362 25.44 445.842 26.06 445.242 26.58C444.622 27.1 443.922 27.52 443.142 27.82C442.362 28.12 441.502 28.26 440.582 28.26C439.582 28.26 438.662 28.08 437.802 27.74C436.942 27.4 436.222 26.92 435.582 26.3C434.962 25.68 434.462 24.96 434.122 24.1C433.762 23.24 433.602 22.32 433.602 21.32C433.602 20.34 433.782 19.44 434.142 18.6C434.502 17.76 435.002 17.02 435.622 16.4C436.242 15.78 436.982 15.28 437.842 14.94C438.702 14.58 439.602 14.4 440.582 14.4C441.502 14.4 442.362 14.56 443.162 14.86C443.962 15.16 444.662 15.58 445.262 16.12C445.862 16.66 446.362 17.28 446.762 18.02C447.162 18.76 447.422 19.56 447.522 20.42H451.702V11.9H453.882V11.94ZM445.402 21.36C445.402 20.7 445.282 20.08 445.042 19.48C444.802 18.88 444.482 18.34 444.042 17.86C443.622 17.38 443.102 17 442.522 16.72C441.942 16.44 441.282 16.28 440.562 16.28C439.842 16.28 439.182 16.42 438.602 16.72C438.022 17.02 437.502 17.4 437.082 17.86C436.662 18.34 436.322 18.86 436.102 19.48C435.882 20.08 435.762 20.72 435.762 21.36C435.762 22 435.882 22.64 436.102 23.24C436.322 23.84 436.662 24.4 437.082 24.88C437.502 25.36 438.022 25.74 438.602 26.02C439.182 26.3 439.842 26.44 440.562 26.44C441.282 26.44 441.942 26.3 442.522 26.02C443.102 25.74 443.622 25.36 444.042 24.88C444.462 24.4 444.802 23.86 445.042 23.24C445.302 22.64 445.402 22.02 445.402 21.36Z" fill="#020203"/>
</svg>
